# xmcd
#
# Track frame offsets:
#	150
#	13645
#	29571
#	47265
#	62914
#	74357
#	87346
#	100225
#	122737
#	136928
#	152689
#	170767
#	213765
#	227125
#	245310
#	263337
#
# Disc length: 3712 seconds
#
# Revision: 1
# Processed by: cddbd v1.5.2PL0 Copyright (c) Steve Scherf et al.
# Submitted via: audiograbber 1.83.01
#
DISCID=d10e7e10
DTITLE=Various Artist - Hits'N'More - The Ultimate Love Collection CD 2
DYEAR=1900
DGENRE=Pop
TTITLE0=McCrea, George - I Can't Leave You Alone
TTITLE1=Winters, Ruby - I Will
TTITLE2=Marmalade, The - Reflections Of My Life
TTITLE3=Rawls, Lou - Lady Love
TTITLE4=Williams, Andy - Strangers In The Night
TTITLE5=Sledge, Percy - When A Man Loves A Woman
TTITLE6=Francis, Connie - I Can't Stop Loving You
TTITLE7=Hopkins, Mary - Those Were The Days
TTITLE8=Puckett, Gary &The Union Gap - Young girl
TTITLE9=James, Tommy and The Shondells - Crimson and clover
TTITLE10=Hot Chocolate - I`ll Put You Together Again
TTITLE11=Harley, Steve and Cockney Rebel - Sebastian
TTITLE12=Lobo - Me And You And A Dog Named Boo
TTITLE13=Martino, Al - Spanish Eyes
TTITLE14=Roussos, Demis - Goodbye My Love Goodbye
TTITLE15=Temptations, The - Papa Was A Rolling Stone
EXTD=
EXTT0=
EXTT1=
EXTT2=
EXTT3=
EXTT4=
EXTT5=
EXTT6=
EXTT7=
EXTT8=
EXTT9=
EXTT10=
EXTT11=
EXTT12=
EXTT13=
EXTT14=
EXTT15=
PLAYORDER=
